<svg width="40" height="187" viewBox="0 0 40 187" fill="none" xmlns="http://www.w3.org/2000/svg">
<rect x="0.5" y="0.5" width="39" height="39" rx="19.5" stroke="#94A6F8"/>
<path d="M27.5003 22.5722L20.0003 30.0002L12.5003 22.5722C12.0056 22.0908 11.6159 21.5122 11.3558 20.8728C11.0958 20.2334 10.9709 19.5471 10.989 18.8571C11.0072 18.1671 11.1681 17.4883 11.4615 16.8635C11.7549 16.2387 12.1744 15.6814 12.6938 15.2268C13.2131 14.7721 13.821 14.4299 14.4791 14.2217C15.1372 14.0134 15.8313 13.9438 16.5177 14.017C17.204 14.0902 17.8678 14.3047 18.4672 14.6471C19.0666 14.9894 19.5885 15.4522 20.0003 16.0062C20.4138 15.4562 20.9364 14.9975 21.5354 14.6588C22.1344 14.3201 22.7968 14.1086 23.4812 14.0377C24.1657 13.9668 24.8574 14.0379 25.5131 14.2466C26.1688 14.4553 26.7743 14.7971 27.2919 15.2505C27.8094 15.704 28.2277 16.2595 28.5207 16.8821C28.8137 17.5047 28.975 18.1811 28.9946 18.8689C29.0142 19.5567 28.8916 20.2412 28.6344 20.8794C28.3773 21.5177 27.9912 22.096 27.5003 22.5782" stroke="#94A6F8" stroke-width="1.5" stroke-linecap="round" stroke-linejoin="round"/>
<path d="M20 40V73.5" stroke="#94A6F8" stroke-linecap="round"/>
<rect x="0.5" y="74" width="39" height="39" rx="19.5" stroke="#94A6F8"/>
<path d="M11 98.5L17 92.5L21 96.5L29 88.5" stroke="#94A6F8" stroke-width="1.5" stroke-linecap="round" stroke-linejoin="round"/>
<path d="M22 88.5H29V95.5" stroke="#94A6F8" stroke-width="1.5" stroke-linecap="round" stroke-linejoin="round"/>
<path d="M20 113.5V147" stroke="#94A6F8" stroke-linecap="round"/>
<rect x="0.5" y="147.5" width="39" height="39" rx="19.5" stroke="#94A6F8"/>
<path d="M11 167H12M20 158V159M28 167H29M13.6 160.6L14.3 161.3M26.4 160.6L25.7 161.3" stroke="#94A6F8" stroke-width="1.5" stroke-linecap="round" stroke-linejoin="round"/>
<path d="M17 171C16.1605 170.37 15.5403 169.493 15.2274 168.491C14.9145 167.489 14.9247 166.414 15.2566 165.419C15.5884 164.423 16.2251 163.557 17.0764 162.944C17.9278 162.33 18.9506 162 20 162C21.0494 162 22.0722 162.33 22.9236 162.944C23.7749 163.557 24.4116 164.423 24.7434 165.419C25.0753 166.414 25.0855 167.489 24.7726 168.491C24.4597 169.493 23.8395 170.37 23 171C22.6096 171.386 22.3156 171.859 22.1419 172.381C21.9681 172.902 21.9195 173.457 22 174C22 174.53 21.7893 175.039 21.4142 175.414C21.0391 175.789 20.5304 176 20 176C19.4696 176 18.9609 175.789 18.5858 175.414C18.2107 175.039 18 174.53 18 174C18.0805 173.457 18.0319 172.902 17.8581 172.381C17.6844 171.859 17.3904 171.386 17 171Z" stroke="#94A6F8" stroke-width="1.5" stroke-linecap="round" stroke-linejoin="round"/>
<path d="M17.7 172H22.3" stroke="#94A6F8" stroke-width="1.5" stroke-linecap="round" stroke-linejoin="round"/>
</svg>
