<svg width="40" height="40" viewBox="0 0 40 40" fill="none" xmlns="http://www.w3.org/2000/svg">
<path d="M24.1668 7.5C24.1668 9.80119 22.3013 11.6667 20.0002 11.6667C17.699 11.6667 15.8335 9.80119 15.8335 7.5C15.8335 5.19881 17.699 3.33333 20.0002 3.33333C22.3013 3.33333 24.1668 5.19881 24.1668 7.5Z" stroke="#94A6F8" stroke-width="1.5"/>
<path d="M35 28.3333L33.0705 27.6834C32.6919 27.5559 32.3317 27.3779 31.9996 27.1542L31.8309 27.0406C30.6871 26.27 30 24.9728 30 23.5837C30 19.5218 27.0938 16.0553 23.1286 15.3875L21.644 15.1375C20.8333 14.9998 19.1667 15.0001 18.356 15.1375L16.8714 15.3875C12.9062 16.0553 10 19.5218 10 23.5837C10 24.9728 9.31294 26.27 8.16908 27.0406L8.00037 27.1542C7.66827 27.3779 7.30814 27.5559 6.9295 27.6834L5 28.3333" stroke="#94A6F8" stroke-width="1.5" stroke-linecap="round" stroke-linejoin="round"/>
<path d="M15.8332 26.6667L14.2923 28.7211C14.0464 29.049 13.9234 29.213 13.7854 29.3573C13.4438 29.7144 13.027 29.9911 12.5653 30.1674C12.3788 30.2386 12.1799 30.2883 11.7823 30.3877L8.79328 31.135C7.54336 31.4475 6.6665 32.5705 6.6665 33.8589C6.6665 35.4096 7.92358 36.6667 9.47427 36.6667H10.6139C13.4608 36.6667 16.231 35.7433 18.5086 34.0351L21.6665 31.6667M24.1665 26.6667L25.3777 28.2816C25.9501 29.0448 26.2363 29.4264 26.6078 29.7084C26.7196 29.7932 26.8365 29.8708 26.958 29.9409C27.3621 30.1739 27.8249 30.2896 28.7504 30.521L31.2064 31.135C32.4563 31.4475 33.3332 32.5705 33.3332 33.8589C33.3332 35.4096 32.0761 36.6667 30.5254 36.6667H28.9626C28.0254 36.6667 27.5568 36.6667 27.0922 36.6407C25.7197 36.564 24.3619 36.3178 23.0498 35.9077C22.6057 35.7689 22.1669 35.6043 21.2894 35.2753L18.3332 34.1667" stroke="#94A6F8" stroke-width="1.5" stroke-linecap="round" stroke-linejoin="round"/>
</svg>
