<svg width="40" height="40" viewBox="0 0 40 40" fill="none" xmlns="http://www.w3.org/2000/svg">
<path d="M36.6668 20C36.6668 29.2048 29.2049 36.6667 20.0002 36.6667C10.7954 36.6667 3.3335 29.2048 3.3335 20C3.3335 10.7953 10.7954 3.33334 20.0002 3.33334" stroke="#94A6F8" stroke-width="1.5" stroke-linecap="round"/>
<path d="M10.8335 18.3333C11.7784 19.3839 12.9275 20 14.1668 20C15.4062 20 16.5553 19.3839 17.5002 18.3333" stroke="#94A6F8" stroke-width="1.5" stroke-linecap="round"/>
<path d="M22.5 18.3333C23.4449 19.3839 24.594 20 25.8333 20C27.0727 20 28.2218 19.3839 29.1667 18.3333" stroke="#94A6F8" stroke-width="1.5" stroke-linecap="round"/>
<path d="M21.6668 26.6667C21.6668 27.5871 20.9206 28.3333 20.0002 28.3333C19.0797 28.3333 18.3335 27.5871 18.3335 26.6667C18.3335 25.7462 19.0797 25 20.0002 25C20.9206 25 21.6668 25.7462 21.6668 26.6667Z" fill="#94A6F8"/>
<path d="M28.3335 6.66666L34.107 3.33332L31.6668 12.4402L37.4403 9.10683" stroke="#94A6F8" stroke-width="1.5" stroke-linecap="round" stroke-linejoin="round"/>
<path d="M23.4131 9.16666L26.2998 10.8333L21.7464 12.0534L24.6332 13.7201" stroke="#94A6F8" stroke-width="1.5" stroke-linecap="round" stroke-linejoin="round"/>
</svg>
