<svg width="20" height="20" viewBox="0 0 20 20" fill="none" xmlns="http://www.w3.org/2000/svg">
<path opacity="0.5" d="M4.57755 10.5632C4.87262 9.81227 5.93143 9.81227 6.2265 10.5632L6.51419 11.2953C6.60427 11.5246 6.78508 11.7061 7.01349 11.7965L7.74294 12.0852C8.49109 12.3814 8.49109 13.4441 7.74294 13.7403L7.01349 14.029C6.78508 14.1195 6.60427 14.3009 6.51419 14.5302L6.2265 15.2623C5.93143 16.0132 4.87262 16.0132 4.57755 15.2623L4.28986 14.5302C4.19978 14.3009 4.01897 14.1195 3.79056 14.029L3.06111 13.7403C2.31296 13.4441 2.31296 12.3814 3.06111 12.0852L3.79056 11.7965C4.01897 11.7061 4.19978 11.5246 4.28986 11.2953L4.57755 10.5632Z" fill="url(#paint0_linear_15565_6881)"/>
<path opacity="0.7" d="M12.0776 12.2298C12.3726 11.4789 13.4314 11.4789 13.7265 12.2298L14.0142 12.962C14.1043 13.1912 14.2851 13.3727 14.5135 13.4631L15.2429 13.7519C15.9911 14.0481 15.9911 15.1108 15.2429 15.4069L14.5135 15.6957C14.2851 15.7861 14.1043 15.9676 14.0142 16.1968L13.7265 16.929C13.4314 17.6799 12.3726 17.6799 12.0776 16.929L11.7899 16.1968C11.6998 15.9676 11.519 15.7861 11.2906 15.6957L10.5611 15.4069C9.81296 15.1108 9.81296 14.0481 10.5611 13.7519L11.2906 13.4631C11.519 13.3727 11.6998 13.1912 11.7899 12.962L12.0776 12.2298Z" fill="url(#paint1_linear_15565_6881)"/>
<path d="M8.85011 2.22984C9.14517 1.47893 10.204 1.47893 10.4991 2.22984L11.2881 4.23789C11.3782 4.46715 11.559 4.64862 11.7874 4.73904L13.7881 5.531C14.5362 5.82716 14.5362 6.88989 13.7881 7.18605L11.7874 7.97801C11.559 8.06843 11.3782 8.2499 11.2881 8.47916L10.4991 10.4872C10.204 11.2381 9.14517 11.2381 8.85011 10.4872L8.06106 8.47916C7.97098 8.24991 7.79017 8.06843 7.56176 7.97801L5.56111 7.18605C4.81296 6.88989 4.81296 5.82716 5.56111 5.531L7.56176 4.73904C7.79017 4.64862 7.97098 4.46715 8.06106 4.23789L8.85011 2.22984Z" fill="url(#paint2_linear_15565_6881)"/>
<defs>
<linearGradient id="paint0_linear_15565_6881" x1="2.5" y1="12.9128" x2="8.30405" y2="12.9128" gradientUnits="userSpaceOnUse">
<stop stop-color="#2766DF"/>
<stop offset="0.520833" stop-color="#4845DF"/>
<stop offset="1" stop-color="#AF27DF"/>
</linearGradient>
<linearGradient id="paint1_linear_15565_6881" x1="10" y1="14.5794" x2="15.8041" y2="14.5794" gradientUnits="userSpaceOnUse">
<stop stop-color="#2766DF"/>
<stop offset="0.520833" stop-color="#4845DF"/>
<stop offset="1" stop-color="#AF27DF"/>
</linearGradient>
<linearGradient id="paint2_linear_15565_6881" x1="5" y1="6.35853" x2="14.3492" y2="6.35853" gradientUnits="userSpaceOnUse">
<stop stop-color="#2766DF"/>
<stop offset="0.520833" stop-color="#4845DF"/>
<stop offset="1" stop-color="#AF27DF"/>
</linearGradient>
</defs>
</svg>
