<svg width="40" height="40" viewBox="0 0 40 40" fill="none" xmlns="http://www.w3.org/2000/svg">
<path d="M13.389 6.09641C13.9655 4.63453 16.0345 4.63453 16.611 6.09641L18.3977 10.6266C18.5737 11.073 18.927 11.4263 19.3734 11.6023L23.9036 13.389C25.3655 13.9655 25.3655 16.0345 23.9036 16.611L19.3734 18.3977C18.927 18.5737 18.5737 18.927 18.3977 19.3734L16.611 23.9036C16.0345 25.3655 13.9655 25.3655 13.389 23.9036L11.6023 19.3734C11.4263 18.927 11.073 18.5737 10.6266 18.3977L6.09641 16.611C4.63453 16.0345 4.63453 13.9655 6.09641 13.389L10.6266 11.6023C11.073 11.4263 11.4263 11.073 11.6023 10.6266L13.389 6.09641Z" stroke="#94A6F8" stroke-width="1.5"/>
<path d="M27.4806 22.2469C27.7857 21.4733 28.8806 21.4733 29.1857 22.2469L30.5201 25.6301C30.6132 25.8663 30.8002 26.0533 31.0364 26.1464L34.4196 27.4808C35.1932 27.7859 35.1932 28.8808 34.4196 29.1859L31.0364 30.5202C30.8002 30.6134 30.6132 30.8003 30.5201 31.0365L29.1857 34.4198C28.8806 35.1934 27.7857 35.1934 27.4806 34.4198L26.1463 31.0365C26.0531 30.8003 25.8662 30.6134 25.63 30.5202L22.2467 29.1859C21.4731 28.8808 21.4731 27.7859 22.2467 27.4808L25.63 26.1464C25.8662 26.0533 26.0531 25.8663 26.1463 25.6301L27.4806 22.2469Z" stroke="#94A6F8" stroke-width="1.5"/>
</svg>
