<svg width="20" height="20" viewBox="0 0 20 20" fill="none" xmlns="http://www.w3.org/2000/svg">
<path d="M10 0C9.782 0 9.568 0.00200011 9.358 0.00500011L8.742 0.0220001L8.443 0.0350001L7.864 0.069L7.311 0.115C2.526 0.579 0.579 2.526 0.115 7.311L0.069 7.864L0.0350001 8.443C0.0300001 8.541 0.0250001 8.641 0.0220001 8.742L0.00500011 9.358L0.000999928 9.676L0 10C0 10.218 0.00200011 10.432 0.00500011 10.642L0.0220001 11.258L0.0350001 11.557L0.069 12.136L0.115 12.689C0.579 17.474 2.526 19.421 7.311 19.885L7.864 19.931L8.443 19.965C8.541 19.97 8.641 19.975 8.742 19.978L9.358 19.995L10 20L10.642 19.995L11.258 19.978L11.557 19.965L12.136 19.931L12.689 19.885C17.474 19.421 19.421 17.474 19.885 12.689L19.931 12.136L19.965 11.557C19.97 11.459 19.975 11.359 19.978 11.258L19.995 10.642L20 10L19.995 9.358L19.978 8.742L19.965 8.443L19.931 7.864L19.885 7.311C19.421 2.526 17.474 0.579 12.689 0.115L12.136 0.069L11.557 0.0350001C11.4574 0.0301352 11.3577 0.0258018 11.258 0.0220001L10.642 0.00500011L10.324 0.000999928L10 0ZM12.293 7.293C12.473 7.11365 12.7144 7.00953 12.9684 7.00177C13.2223 6.99402 13.4697 7.08321 13.6603 7.25125C13.8508 7.41928 13.9703 7.65355 13.9944 7.90647C14.0185 8.1594 13.9454 8.41201 13.79 8.613L13.707 8.707L9.707 12.707C9.53481 12.8792 9.30571 12.9826 9.06268 12.9979C8.81966 13.0132 8.5794 12.9393 8.387 12.79L8.293 12.707L6.293 10.707C6.11365 10.527 6.00953 10.2856 6.00177 10.0316C5.99402 9.77767 6.08321 9.53029 6.25125 9.33972C6.41928 9.14916 6.65355 9.02969 6.90647 9.0056C7.1594 8.98151 7.41201 9.05459 7.613 9.21L7.707 9.293L9 10.585L12.293 7.293Z" fill="white"/>
</svg>
